<svg xmlns="http://www.w3.org/2000/svg" x="0px" y="0px"
width="64" height="64"
viewBox="0 0 172 172"
style=" fill:#000000;"><g fill="none" fill-rule="nonzero" stroke="none" stroke-width="1" stroke-linecap="butt" stroke-linejoin="miter" stroke-miterlimit="10" stroke-dasharray="" stroke-dashoffset="0" font-family="none" font-weight="none" font-size="none" text-anchor="none" style="mix-blend-mode: normal"><path d="M0,172v-172h172v172z" fill="none"></path><g fill="#333333"><path d="M34.9375,0c-19.26392,0 -34.9375,15.67358 -34.9375,34.9375c0,14.5083 8.89185,26.95898 21.5,32.2395v80.52002c0,4.35669 3.49585,8.09399 8.0625,8.09399h129c4.56665,0 8.0625,-3.7373 8.0625,-8.09399v-112.72803c0,-4.35669 -3.49585,-8.09399 -8.0625,-8.09399h-13.4375v-8.0625c0,-4.44067 -3.62183,-8.0625 -8.0625,-8.0625c-4.44067,0 -8.0625,3.62183 -8.0625,8.0625v8.0625h-26.875v-8.0625c0,-4.44067 -3.62183,-8.0625 -8.0625,-8.0625c-4.44067,0 -8.0625,3.62183 -8.0625,8.0625v8.0625h-17.10132c-3.65332,-15.37964 -17.47925,-26.875 -33.96118,-26.875zM34.9375,5.375c16.30347,0 29.5625,13.25903 29.5625,29.5625c0,16.30347 -13.25903,29.5625 -29.5625,29.5625c-16.30347,0 -29.5625,-13.25903 -29.5625,-29.5625c0,-16.30347 13.25903,-29.5625 29.5625,-29.5625zM94.0625,16.125c1.48022,0 2.6875,1.20728 2.6875,2.6875v21.5c0,1.48022 -1.20728,2.6875 -2.6875,2.6875c-1.48022,0 -2.6875,-1.20728 -2.6875,-2.6875v-21.5c0,-1.48022 1.20728,-2.6875 2.6875,-2.6875zM137.0625,16.125c1.48022,0 2.6875,1.20728 2.6875,2.6875v21.5c0,1.48022 -1.20728,2.6875 -2.6875,2.6875c-1.48022,0 -2.6875,-1.20728 -2.6875,-2.6875v-21.5c0,-1.48022 1.20728,-2.6875 2.6875,-2.6875zM51.0625,21.5c-0.68237,0 -1.37524,0.26245 -1.90015,0.78735l-19.59985,19.59985l-8.84985,-8.84985c-1.0498,-1.0498 -2.75049,-1.0498 -3.80029,0c-1.0498,1.0498 -1.0498,2.75049 0,3.80029l10.75,10.75c0.5249,0.5249 1.20728,0.78735 1.90015,0.78735c0.69287,0 1.37524,-0.26245 1.90015,-0.78735l21.5,-21.5c1.0498,-1.0498 1.0498,-2.75049 0,-3.80029c-0.5249,-0.5249 -1.21777,-0.78735 -1.90015,-0.78735zM69.73853,32.16602h16.26147v8.14648c0,4.44067 3.62183,8.0625 8.0625,8.0625c4.44067,0 8.0625,-3.62183 8.0625,-8.0625v-8.14648h26.875v8.14648c0,4.44067 3.62183,8.0625 8.0625,8.0625c4.44067,0 8.0625,-3.62183 8.0625,-8.0625v-8.14648h13.4375c1.6167,0 2.6875,1.23877 2.6875,2.80298v18.78101c-1.6167,0 -2.6875,1.19678 -2.6875,2.6875v5.375c0,1.49072 1.0708,2.6875 2.6875,2.6875v83.19702c0,1.55371 -1.0708,2.80298 -2.6875,2.80298h-129c-1.6167,0 -2.6875,-1.24927 -2.6875,-2.80298v-78.79834c2.59302,0.61939 5.28052,0.97632 8.0625,0.97632c19.26392,0 34.9375,-15.67358 34.9375,-34.9375c0,-0.93433 -0.07349,-1.84766 -0.13647,-2.77148zM67.1875,53.75c-1.6167,0 -2.6875,1.19678 -2.6875,2.6875v5.375c0,1.48022 1.0708,2.6875 2.6875,2.6875c1.6167,0 2.6875,-1.19678 2.6875,-2.6875v-5.375c0,-1.49072 -1.0708,-2.6875 -2.6875,-2.6875zM80.625,53.75c-1.6167,0 -2.6875,1.19678 -2.6875,2.6875v5.375c0,1.48022 1.0708,2.6875 2.6875,2.6875c1.6167,0 2.6875,-1.19678 2.6875,-2.6875v-5.375c0,-1.49072 -1.0708,-2.6875 -2.6875,-2.6875zM94.0625,53.75c-1.6167,0 -2.6875,1.19678 -2.6875,2.6875v5.375c0,1.48022 1.0708,2.6875 2.6875,2.6875c1.6167,0 2.6875,-1.19678 2.6875,-2.6875v-5.375c0,-1.49072 -1.0708,-2.6875 -2.6875,-2.6875zM107.5,53.75c-1.6167,0 -2.6875,1.19678 -2.6875,2.6875v5.375c0,1.48022 1.0708,2.6875 2.6875,2.6875c1.6167,0 2.6875,-1.19678 2.6875,-2.6875v-5.375c0,-1.49072 -1.0708,-2.6875 -2.6875,-2.6875zM120.9375,53.75c-1.6167,0 -2.6875,1.19678 -2.6875,2.6875v5.375c0,1.48022 1.0708,2.6875 2.6875,2.6875c1.6167,0 2.6875,-1.19678 2.6875,-2.6875v-5.375c0,-1.49072 -1.0708,-2.6875 -2.6875,-2.6875zM134.375,53.75c-1.6167,0 -2.6875,1.19678 -2.6875,2.6875v5.375c0,1.48022 1.0708,2.6875 2.6875,2.6875c1.6167,0 2.6875,-1.19678 2.6875,-2.6875v-5.375c0,-1.49072 -1.0708,-2.6875 -2.6875,-2.6875zM147.8125,53.75c-1.6167,0 -2.6875,1.19678 -2.6875,2.6875v5.375c0,1.48022 1.0708,2.6875 2.6875,2.6875c1.6167,0 2.6875,-1.19678 2.6875,-2.6875v-5.375c0,-1.49072 -1.0708,-2.6875 -2.6875,-2.6875zM93.86304,70.33691c-1.0918,0 -2.07861,0.65088 -2.48804,1.66919l-6.67676,16.35596l-18.15112,1.6482c-1.0708,0.09448 -1.98413,0.82934 -2.30957,1.85815c-0.33594,1.01831 -0.03149,2.1311 0.77685,2.84497l13.69995,11.98877l-4.19922,17.1853c-0.26245,1.0603 0.15747,2.1731 1.02881,2.80298c0.88184,0.65088 2.06811,0.69287 2.99194,0.12598l15.32715,-9.49023l15.31665,9.49023c0.43042,0.26245 0.92383,0.38843 1.41724,0.38843c0.5459,0 1.10229,-0.16797 1.57471,-0.5144c0.88184,-0.62988 1.29126,-1.74267 1.03931,-2.80298l-4.19922,-17.1853l13.68945,-11.98877c0.81885,-0.71387 1.12329,-1.82666 0.79785,-2.84497c-0.33594,-1.02881 -1.24927,-1.76367 -2.30957,-1.85815l-18.16162,-1.6482l-6.67676,-16.35596c-0.40942,-1.01831 -1.39624,-1.66919 -2.48804,-1.66919zM93.86304,80.13159l4.80811,11.77881c0.37793,0.92383 1.23877,1.56421 2.23608,1.65869l13.53198,1.22827l-10.2041,8.92334c-0.75586,0.66138 -1.0813,1.69018 -0.83984,2.66651l3.02344,12.3877l-11.13843,-6.89722c-0.44092,-0.27295 -0.92383,-0.39892 -1.41724,-0.39892c-0.49341,0 -0.97632,0.13647 -1.40674,0.39892l-11.15942,6.89722l3.03393,-12.3877c0.24146,-0.97632 -0.08398,-2.00513 -0.83984,-2.66651l-10.2146,-8.92334l13.53198,-1.22827c1.00781,-0.09448 1.86865,-0.73486 2.25708,-1.65869zM34.9375,134.375c-1.49072,0 -2.6875,1.19678 -2.6875,2.6875c0,1.49072 1.19678,2.6875 2.6875,2.6875h118.25c1.49072,0 2.6875,-1.19678 2.6875,-2.6875c0,-1.49072 -1.19678,-2.6875 -2.6875,-2.6875z"></path></g></g></svg>