              <svg
                xmlns="http://www.w3.org/2000/svg"
                x="0px"
                y="0px"
                viewBox="0 0 172 172"
                style="fill: #000000"
              >
                <g
                  fill="none"
                  fill-rule="nonzero"
                  stroke="none"
                  stroke-width="1"
                  stroke-linecap="butt"
                  stroke-linejoin="miter"
                  stroke-miterlimit="10"
                  stroke-dasharray=""
                  stroke-dashoffset="0"
                  font-family="none"
                  font-weight="none"
                  font-size="none"
                  text-anchor="none"
                  style="mix-blend-mode: normal"
                >
                  <path d="M0,172v-172h172v172z" fill="none"></path>
                  <g>
                    <path
                      d="M141.53047,109.24688c-0.83984,-10.88438 -2.08281,-21.73516 -2.85547,-32.65313c-0.77266,-10.78359 -1.20938,-21.63437 -1.51172,-32.45156c-0.13438,-4.53516 -0.03359,-9.07031 -0.06719,-13.60547c0,-2.08281 -0.06719,-4.23281 -0.43672,-6.28203c-0.16797,-0.87344 -0.33594,-1.71328 -0.67187,-2.55312c-0.13438,-0.33594 -0.26875,-0.63828 -0.43672,-0.94062c-0.23516,0.20156 -0.5375,0.33594 -0.94063,0.40312c-8.16328,1.24297 -16.56172,1.64609 -24.82578,1.94844c-10.88437,0.36953 -21.80234,0.5375 -32.68672,1.27656c-5.44219,0.36953 -10.85078,0.83984 -16.29297,0.94063c-4.36719,0.10078 -8.70078,0.30234 -13.06797,0.60469c-2.6875,0.20156 -5.375,0.26875 -8.0625,0.50391c-1.34375,0.13438 -2.72109,0.23516 -4.06484,0.50391c-0.40312,0.06719 -0.80625,0.20156 -1.17578,0.33594c0.03359,0.13438 0.03359,0.30234 0,0.43672c-0.16797,2.28438 0.57109,4.53516 1.00781,6.71875c0.47031,2.35156 0.57109,4.73672 0.63828,7.12188c0.13437,5.07266 0.30234,10.14531 0.43672,15.21797c0.30234,10.48125 0.33594,20.9625 1.41094,31.41016c0.5375,5.30781 1.24297,10.61563 1.84766,15.92344c0.57109,5.10625 0.50391,10.31328 0.50391,15.41953c-0.03359,10.31328 -0.06719,20.59297 -0.06719,30.90625c0.90703,0 1.78047,0 2.6875,0c20.72734,0.03359 41.48828,0.40312 62.21563,0.57109c0.26875,-0.36953 0.70547,-0.60469 1.31016,-0.57109c2.6875,0.06719 4.50156,-3.35937 5.61016,-5.375c0.90703,-1.64609 1.64609,-3.35937 2.41875,-5.07266c-3.7625,0.03359 -7.42422,0.80625 -11.15313,1.31016c-5.54297,0.73906 -11.05234,1.64609 -16.62891,2.08281c-9.80937,0.80625 -20.12266,1.81406 -29.76406,-0.97422c-2.28438,-0.63828 -1.57891,-4.3 0.70547,-3.62813c9.64141,2.78828 20.18984,1.74687 30.06641,0.77266c5.34141,-0.50391 10.64922,-1.37734 15.95703,-2.04922c3.52734,-0.47031 6.95391,-1.17578 10.48125,-1.20937c0.03359,0 0.06719,0 0.10078,0h0.10078c0.60469,0 1.075,0.23516 1.41094,0.60469c0.80625,-1.91484 1.51172,-3.99766 2.01563,-6.18125c-1.81406,-0.10078 -3.69531,0.23516 -5.50937,0.30234c-2.78828,0.10078 -5.54297,0.36953 -8.26406,0.80625c-5.30781,0.80625 -10.58203,1.78047 -15.92344,2.35156c-10.75,1.14219 -21.53359,1.74687 -32.28359,0.63828c-2.38516,-0.23516 -1.64609,-3.86328 0.70547,-3.62813c11.01875,1.14219 22.23906,0.36953 33.22422,-0.87344c5.34141,-0.60469 10.58203,-1.74688 15.92344,-2.41875c2.58672,-0.33594 5.17344,-0.40312 7.76016,-0.57109c1.57891,-0.10078 3.19141,-0.26875 4.77031,-0.20156c0,-0.20156 0.03359,-0.40313 0.03359,-0.63828c0.03359,-0.16797 0.03359,-0.36953 0.06719,-0.5375c0.10078,0 0.20156,0 0.30234,0c0.10078,-1.10859 0.16797,-2.21719 0.16797,-3.32578c-5.03906,0.57109 -9.97734,1.31016 -14.91562,2.51953c-5.87891,1.44453 -11.58984,3.15781 -17.63672,3.59453c-5.94609,0.40313 -11.92578,0.33594 -17.87187,-0.03359c-2.72109,-0.16797 -5.40859,-0.36953 -8.12969,-0.5375c-2.38516,-0.13437 -4.70312,-0.36953 -6.88672,-1.37734c-2.15,-1.00781 -0.50391,-4.3 1.64609,-3.32578c2.18359,1.00781 4.66953,0.97422 6.9875,1.075c2.62031,0.13437 5.24063,0.43672 7.86094,0.5375c5.77813,0.30234 11.62344,0.40313 17.36797,-0.16797c5.9125,-0.57109 11.55625,-2.41875 17.33438,-3.7625c4.63594,-1.075 9.30547,-1.74688 14.00859,-2.28438c-0.16797,-1.31016 -0.43672,-2.62031 -0.80625,-3.86328c-0.03359,0 -0.06719,0 -0.10078,0c-0.33594,0.06719 -0.67187,0.10078 -1.00781,0.16797c-0.97422,0.13437 -1.91484,0.33594 -2.85547,0.50391c-2.78828,0.5375 -5.57656,1.00781 -8.39844,1.37734c-5.81172,0.77266 -11.62344,1.24297 -17.46875,1.57891c-11.825,0.67188 -23.61641,0.90703 -35.44141,0.90703c-2.38516,0 -2.65391,-3.69531 -0.26875,-3.69531c12.26172,0 24.48984,-0.23516 36.75156,-1.00781c6.21484,-0.40312 12.46328,-0.90703 18.61094,-1.88125c2.65391,-0.40312 5.30781,-1.10859 7.96172,-1.41094c1.20938,-0.13437 2.98984,-0.80625 4.16562,-0.10078c0.03359,0 0.03359,0.03359 0.06719,0.03359v-0.30234c0.03359,0 0.06719,0.03359 0.06719,0.03359c4.06484,2.04922 8.09609,4.87109 12.73203,5.30781c1.41094,0.13437 2.85547,0.20156 4.26641,0.10078c0.57109,-0.03359 2.75469,-0.10078 3.02344,-0.5375c0.47031,-0.80625 1.27656,-1.00781 2.01563,-0.87344c0.03359,-1.88125 -0.10078,-3.89687 -0.26875,-5.94609zM129.13438,89.19141c-6.48359,0.03359 -12.96719,1.14219 -19.41719,1.94844c-6.28203,0.80625 -12.53047,1.81406 -18.77891,2.82188c-6.21484,1.00781 -12.42969,2.04922 -18.71172,2.58672c-6.24844,0.50391 -12.53047,0.70547 -18.77891,0.70547c-2.38516,0 -2.65391,-3.69531 -0.26875,-3.69531c6.48359,0 12.96719,-0.16797 19.45078,-0.77266c6.28203,-0.57109 12.49687,-1.6125 18.71172,-2.62031c6.24844,-1.04141 12.49688,-2.04922 18.8125,-2.82187c6.01328,-0.73906 12.02656,-1.74688 18.07344,-1.84766c0.06719,0 0.13438,0 0.23516,0h0.43672c2.31797,0 2.62031,3.66172 0.23516,3.69531zM127.75703,75.28359c-0.73906,-0.13437 -1.88125,0.13438 -2.72109,0.26875c-1.00781,0.13437 -2.01562,0.16797 -3.02344,0.26875c-2.92266,0.26875 -5.84531,0.67188 -8.76797,1.17578c-5.94609,1.04141 -11.89219,1.88125 -17.93906,1.91484c-2.38516,0 -2.65391,-3.66172 -0.26875,-3.69531c6.51719,-0.03359 12.79922,-1.14219 19.21563,-2.11641c2.92266,-0.43672 5.84531,-0.77266 8.80156,-1.04141c1.74688,-0.16797 3.62813,-0.67187 5.40859,-0.40313c2.35156,0.36953 1.64609,3.99766 -0.70547,3.62812zM125.10313,60.87188c-0.5375,0.30234 -0.94062,0.47031 -1.57891,0.5375c-0.26875,0.03359 -0.50391,0 -0.70547,-0.06719c-4.56875,0.5375 -9.1375,1.47812 -13.67266,2.15c-3.96406,0.60469 -8.02891,0.80625 -12.02656,0.80625c-2.38516,0 -2.65391,-3.69531 -0.26875,-3.69531c4.23281,0 8.33125,-0.47031 12.53047,-0.90703c4.90469,-0.50391 9.675,-1.74687 14.54609,-2.25078c1.78047,-0.10078 2.78828,2.48594 1.17578,3.42656zM125.84219,68.36328c-0.57109,0.26875 -1.14219,0.23516 -1.6125,0c-4.43437,0.10078 -8.80156,1.10859 -13.23594,1.57891c-4.70312,0.50391 -9.33906,1.94844 -14.10937,1.78047c-2.35156,-0.06719 -2.65391,-3.7625 -0.26875,-3.69531c4.77031,0.16797 9.40625,-1.31016 14.10938,-1.78047c4.93828,-0.50391 9.77578,-1.71328 14.78125,-1.57891c2.28437,0.06719 2.6875,3.42656 0.33594,3.69531zM124.46484,55.22813l0.03359,-0.06719c-0.70547,0.67188 -1.78047,0.63828 -2.48594,0.20156c-4.56875,0.06719 -9.03672,1.10859 -13.53828,1.71328c-4.90469,0.67188 -9.77578,0.97422 -14.71406,0.97422c-2.38516,0 -2.65391,-3.69531 -0.26875,-3.69531c5.13984,0 10.27969,-0.30234 15.35234,-1.075c4.80391,-0.73906 9.57422,-1.78047 14.44531,-1.6125c0.77266,0.03359 1.67969,0.36953 1.88125,1.24297c0,0.06719 0.03359,0.10078 0.03359,0.16797c0.20156,0.83984 0,1.6125 -0.73906,2.15zM115.99922,27.81563c2.58672,-2.18359 6.88672,-3.02344 10.01094,-1.67969c2.18359,0.94062 0.5375,4.23281 -1.64609,3.32578c-1.37734,-0.57109 -3.89688,-0.20156 -5.13984,0.60469c-0.30234,0.20156 -2.55313,2.11641 -2.01562,2.31797c1.44453,0.50391 3.25859,0.06719 4.77031,0.43672c1.91484,0.47031 3.46016,1.37734 4.56875,3.02344c1.98203,2.92266 2.04922,7.25625 -0.77266,9.675c-2.41875,2.08281 -6.08047,2.48594 -9.1375,2.51953c-2.38516,0.03359 -2.65391,-3.66172 -0.26875,-3.69531c2.65391,-0.03359 8.33125,-0.23516 7.96172,-4.13203c-0.20156,-2.18359 -1.44453,-3.32578 -3.46016,-3.82969c-1.6125,-0.40312 -3.29219,0 -4.90469,-0.5375c-4.13203,-1.51172 -2.35156,-6.01328 0.03359,-8.02891zM85.73125,29.025c0.10078,-2.35156 3.79609,-2.65391 3.69531,-0.26875c-0.13438,3.29219 1.98203,6.31562 3.05703,9.33906c0.57109,1.67969 1.14219,3.46016 1.98203,5.10625c0.40312,-1.37734 0.73906,-2.72109 0.94062,-4.13203c0.30234,-2.18359 0.47031,-4.36719 1.78047,-6.21484c0.60469,-0.83984 1.91484,-0.77266 2.62031,-0.16797c2.58672,2.25078 3.82969,5.27422 5.27422,8.19687c0.30234,-1.44453 0.57109,-2.92266 0.67188,-4.40078c0.13438,-1.88125 -0.06719,-4.06484 1.00781,-5.71094c1.27656,-1.94844 4.63594,-0.33594 3.32578,1.64609c-1.00781,1.54531 -0.5375,3.99766 -0.83984,5.74453c-0.47031,2.72109 -1.04141,5.40859 -1.47813,8.09609c-0.26875,1.67969 -2.41875,1.88125 -3.35937,0.67188c-2.21719,-2.82187 -3.15781,-6.48359 -5.20703,-9.40625c-0.13437,1.04141 -0.13437,2.11641 -0.33594,2.98984c-0.5375,2.45234 -1.34375,4.8375 -1.88125,7.28984c-0.26875,1.27656 -2.01562,2.08281 -3.02344,1.04141c-2.51953,-2.6875 -3.79609,-6.14766 -5.00547,-9.57422c-1.17578,-3.32578 -3.39297,-6.58437 -3.225,-10.24609zM66.31406,29.93203c0.20156,-0.33594 0.50391,-0.60469 0.94062,-0.77266c2.51953,-0.97422 5.10625,-0.30234 7.72656,-0.50391c1.04141,-0.10078 2.08281,-0.03359 3.12422,-0.06719c0.50391,-0.03359 1.00781,-0.03359 1.51172,-0.10078c0.13437,0 0.87344,-0.26875 0.47031,0c1.98203,-1.34375 4.03125,1.74687 2.08281,3.05703c-1.54531,1.04141 -4.16563,0.73906 -5.94609,0.77266c-2.25078,0 -5.07266,-0.47031 -7.28984,0.23516c0.36953,1.41094 0.40312,3.15781 0.40312,4.43438c0.13438,-0.03359 0.30234,-0.06719 0.47031,-0.03359c2.45234,0.03359 4.8375,0.16797 7.25625,-0.10078c1.6125,-0.16797 3.49375,-0.57109 5.10625,-0.10078c2.25078,0.67188 1.57891,4.33359 -0.70547,3.62813c-1.51172,-0.47031 -3.35937,0.13437 -4.90469,0.23516c-2.18359,0.13438 -4.3,0.03359 -6.48359,0.03359c-0.20156,0 -0.40313,-0.03359 -0.57109,-0.10078c0.10078,2.01563 0.20156,4.03125 0.10078,6.01328c4.46797,-0.13438 8.90234,-1.04141 13.40391,-0.87344c2.35156,0.10078 2.65391,3.7625 0.26875,3.69531c-4.73672,-0.16797 -9.37266,0.83984 -14.10937,0.90703c-0.80625,0 -1.37734,-0.40312 -1.67969,-0.97422c-0.90703,-0.20156 -1.74687,-0.94063 -1.6125,-2.11641c0,-0.06719 0,-0.03359 0,-0.03359c0,-0.03359 0,-0.10078 0,-0.20156c0,-0.26875 0,-0.57109 0,-0.83984c0,-0.63828 0,-1.27656 0,-1.91484c-0.03359,-1.6125 -0.06719,-3.19141 -0.16797,-4.77031c-0.06719,-1.54531 -0.16797,-3.09063 -0.33594,-4.60234c-0.06719,-0.57109 -0.13438,-1.14219 -0.23516,-1.67969c-0.03359,-0.10078 -0.03359,-0.13437 -0.03359,-0.13437c0,0 -0.03359,-0.03359 -0.03359,-0.10078c-0.73906,-1.17578 -0.16797,-2.92266 1.24297,-2.98984zM44.54531,32.11563c0.23516,-1.47813 1.74687,-1.74688 2.75469,-1.17578c0.50391,-0.13438 1.075,-0.06719 1.6125,0.36953c2.45234,1.94844 3.66172,5.34141 5.24062,7.96172c1.14219,1.88125 2.58672,3.46016 3.96406,5.13984c0.16797,-1.74688 0.23516,-3.52734 0.43672,-5.27422c0.30234,-2.25078 0.97422,-4.70312 0.70547,-6.9875c-0.26875,-2.38516 3.39297,-2.65391 3.69531,-0.26875c0.26875,2.41875 -0.40312,5.03906 -0.70547,7.42422c-0.43672,3.35938 -0.26875,6.81953 -1.34375,10.07813c-0.60469,1.81406 -2.72109,1.98203 -3.56094,0.26875c-1.6125,-3.25859 -4.66953,-5.50938 -6.48359,-8.63359c-0.90703,-1.57891 -1.71328,-3.56094 -2.82187,-5.17344c0.16797,2.35156 0.77266,4.77031 1.00781,6.9875c0.26875,2.72109 0.43672,5.44219 0.43672,8.19687c0,0.03359 0,0.06719 0,0.10078v0.26875c0,2.38516 -3.69531,2.65391 -3.69531,0.26875c0,-3.12422 -0.16797,-6.24844 -0.5375,-9.37266c-0.26875,-3.29219 -1.24297,-6.81953 -0.70547,-10.17891zM47.97188,74.30938c-0.33594,-1.27656 -0.77266,-2.55313 -1.10859,-3.82969c-0.80625,-2.95625 -1.47812,-5.94609 -2.11641,-8.93594c-0.30234,-1.44453 1.04141,-2.11641 2.18359,-1.81406c0.10078,-0.10078 0.23516,-0.20156 0.40312,-0.30234c2.38516,-1.31016 5.20703,-1.27656 7.82734,-1.64609c3.56094,-0.50391 7.05469,-1.27656 10.64922,-1.6125c5.94609,-0.60469 11.95937,-1.00781 17.93906,-1.04141c0.43672,-1.47812 2.88906,-1.94844 3.56094,-0.13437c1.24297,3.39297 1.6125,7.15547 1.94844,10.75c0.40312,4.03125 0.60469,8.0625 0.60469,12.12734c0,0.60469 -0.20156,1.34375 -0.80625,1.67969c-1.91484,1.04141 -3.89687,1.74688 -6.01328,2.21719c-0.30234,0.06719 -0.57109,0.06719 -0.83984,0.03359c-2.62031,1.6125 -7.08828,0.67188 -9.77578,0.43672c-2.25078,-0.20156 -4.53516,-0.10078 -6.81953,-0.03359c-2.58672,0.06719 -5.20703,0 -7.79375,0.43672c-3.99766,0.70547 -8.70078,0.80625 -9.43984,-4.23281c-0.16797,-1.41094 -0.06719,-2.82187 -0.40313,-4.09844zM51.12969,86.83984c12.69844,-0.03359 25.32969,-1.67969 37.96094,-2.88906c6.48359,-0.60469 12.96719,-1.20938 19.41719,-2.18359c3.05703,-0.47031 6.11406,-0.73906 9.17109,-1.20938c1.78047,-0.26875 3.66172,-0.13437 5.47578,-0.36953c0.26875,-0.33594 0.67188,-0.5375 1.24297,-0.5375h1.10859c2.04922,0 2.82187,2.85547 0.73906,3.59453c-2.55312,0.90703 -5.17344,0.50391 -7.79375,0.90703c-2.98984,0.47031 -6.01328,0.73906 -9.00313,1.20937c-6.45,0.97422 -12.93359,1.6125 -19.41719,2.21719c-12.83281,1.20937 -25.66563,2.88906 -38.59922,2.92266c-2.38516,0.03359 -2.65391,-3.66172 -0.30234,-3.66172zM51.6,100.94922c6.11406,-0.33594 12.26172,0.40313 18.37578,0.06719c6.14766,-0.33594 12.29531,-1.17578 18.40938,-1.78047c6.51719,-0.63828 13.00078,-1.27656 19.48438,-2.08281c3.09062,-0.36953 6.24844,-0.5375 9.33906,-1.14219c2.35156,-0.47031 4.50156,-1.20937 6.88672,-1.31016c0.10078,0 0.16797,-0.03359 0.26875,-0.03359h0.40312c2.38516,0 2.65391,3.69531 0.26875,3.69531c-2.85547,0 -5.40859,1.00781 -8.19687,1.44453c-3.09063,0.50391 -6.24844,0.73906 -9.37266,1.10859c-6.28203,0.73906 -12.56406,1.37734 -18.84609,1.98203c-6.31563,0.63828 -12.66484,1.54531 -19.04766,1.81406c-5.9125,0.23516 -11.85859,-0.40313 -17.77109,-0.10078c-2.31797,0.16797 -2.58672,-3.52734 -0.20156,-3.66172zM131.72109,104.00625c-1.37734,1.37734 -3.89687,1.00781 -5.67734,1.20938c-3.15781,0.40312 -6.28203,1.44453 -9.43984,1.84766c-3.62813,0.50391 -7.25625,0.63828 -10.91797,0.87344c-3.62813,0.23516 -7.22266,0.70547 -10.78359,1.17578c-7.32344,0.97422 -14.61328,2.38516 -22.0375,2.58672c-3.56094,0.10078 -7.12188,0.06719 -10.71641,0.06719c-3.09062,0 -6.41641,0.40312 -9.43984,-0.26875c-2.31797,-0.50391 -1.6125,-4.13203 0.70547,-3.62812c3.09062,0.67188 6.58438,0.20156 9.70859,0.20156c3.35938,0 6.71875,0.03359 10.07813,-0.06719c6.9875,-0.26875 13.84063,-1.54531 20.76094,-2.48594c3.59453,-0.47031 7.18906,-0.97422 10.78359,-1.20938c3.42656,-0.23516 6.85313,-0.33594 10.24609,-0.73906c3.29219,-0.40313 6.55078,-1.10859 9.77578,-1.84766c0.87344,-0.20156 1.78047,-0.23516 2.6875,-0.30234c0.47031,-0.03359 0.97422,-0.06719 1.44453,-0.13437c0.67188,-0.10078 0.57109,-0.30234 0,0.30234c1.71328,-1.71328 4.50156,0.73906 2.82187,2.41875z"
                      fill="#ffe066"
                    ></path>
                    <path
                      d="M132.86328,120.4c-3.96406,-0.30234 -7.42422,-1.94844 -10.85078,-3.72891c0.10078,0.60469 0.20156,1.24297 0.26875,1.88125c0.10078,0.06719 0.20156,0.20156 0.26875,0.30234c-0.10078,0.13437 -0.13437,0.30234 -0.10078,0.50391c0.13437,0.87344 0.16797,1.74688 0.20156,2.62031c-0.03359,0.03359 -0.10078,0.06719 -0.16797,0.10078c0.03359,5.87891 -1.44453,11.95938 -3.59453,17.09922c-0.5375,1.24297 -1.04141,2.51953 -1.57891,3.7625c2.55313,-2.41875 5.24063,-4.70312 7.86094,-7.12187c2.92266,-2.72109 5.74453,-5.50937 8.63359,-8.26406c2.45234,-2.35156 4.8375,-4.80391 6.92031,-7.49141c0,-0.06719 0.03359,-0.13437 0.06719,-0.20156c-2.45234,0.97422 -5.67734,0.70547 -7.92812,0.5375z"
                      fill="#bcbcbc"
                    ></path>
                    <path
                      d="M149.39141,136.65938c-0.60469,-1.51172 -0.26875,-3.05703 -0.43672,-4.66953c-0.26875,-2.25078 -0.43672,-4.53516 -0.47031,-6.81953c-0.10078,-5.17344 -0.23516,-10.31328 -0.23516,-15.48672c-0.03359,-11.01875 -1.075,-21.97031 -1.74688,-32.95547c-0.63828,-10.88438 -0.26875,-21.76875 -1.81406,-32.58594c-0.40312,-2.75469 -1.00781,-5.47578 -1.34375,-8.23047c-0.30234,-2.45234 -0.33594,-4.90469 -0.70547,-7.35703c-0.40312,-2.6875 -1.17578,-5.27422 -1.57891,-7.96172c-0.30234,-1.94844 -0.50391,-3.93047 -0.73906,-5.87891c-0.40312,0.06719 -0.77266,0 -1.04141,-0.20156c-8.80156,0.43672 -17.67031,0.36953 -26.43828,1.17578c-9.03672,0.83984 -18.00625,2.48594 -27.07656,2.88906c-9.03672,0.40312 -18.10703,0.16797 -27.17734,0.60469c-2.35156,0.10078 -4.70312,0.26875 -7.05469,0.43672c-2.01562,0.16797 -3.99766,0.94062 -6.01328,1.04141c-0.87344,0.03359 -1.71328,0.06719 -2.58672,-0.13437c-0.43672,-0.10078 -0.83984,-0.23516 -1.27656,-0.30234c-0.13437,0 -0.20156,0 -0.26875,0c-0.03359,0.43672 0.16797,1.04141 0.23516,1.37734c0.06719,0.33594 0.06719,0.67188 0.06719,1.00781c1.71328,-0.10078 3.42656,-0.20156 5.17344,-0.30234c9.57422,-0.60469 19.11484,-0.83984 28.68906,-1.51172c11.08594,-0.77266 22.23906,-0.97422 33.35859,-1.34375c8.46562,-0.30234 17.09922,-0.67187 25.46406,-1.94844c0.33594,-0.06719 0.63828,-0.03359 0.87344,0.06719c0.47031,-0.33594 1.075,-0.47031 1.74687,-0.23516c1.71328,0.60469 2.45234,2.75469 2.88906,4.40078c0.50391,1.98203 0.77266,4.03125 0.83984,6.08047c0.16797,4.26641 -0.06719,8.53281 0.03359,12.79922c0.10078,5.40859 0.36953,10.81719 0.63828,16.22578c0.50391,10.88437 1.04141,21.73516 2.04922,32.58594c0.90703,9.87656 1.91484,19.78672 2.38516,29.69688h-0.94063c0.23516,0.57109 0.20156,1.24297 -0.26875,1.88125c-2.35156,3.29219 -5.17344,6.21484 -8.09609,9.03672c-2.75469,2.62031 -5.44219,5.30781 -8.23047,7.89453c-2.48594,2.31797 -5.17344,4.53516 -7.72656,6.88672c2.28437,-0.36953 4.53516,-0.94062 6.81953,-1.47812c2.92266,-0.67187 5.77813,-1.075 8.76797,-1.37734c3.25859,-0.30234 6.55078,-0.63828 9.77578,-1.14219c0.70547,-0.10078 2.75469,-0.10078 3.05703,-0.94063c0.23516,-0.63828 0.10078,-1.51172 0.10078,-2.18359c0,-0.43672 0.10078,-0.77266 0.30234,-1.04141z"
                      fill="#bcbcbc"
                    ></path>
                    <path
                      d="M85.63047,66.58281c-0.26875,-2.58672 -0.47031,-5.27422 -1.075,-7.86094c-5.97969,0.03359 -11.95937,0.40312 -17.90547,1.00781c-3.32578,0.33594 -6.61797,1.04141 -9.94375,1.51172c-1.34375,0.20156 -2.6875,0.40312 -4.06484,0.5375c-1.075,0.10078 -2.28438,0.16797 -3.25859,0.67188c-0.23516,0.13438 -0.43672,0.20156 -0.67187,0.23516c0.47031,2.18359 0.97422,4.40078 1.6125,6.55078c0.67188,2.25078 1.34375,4.43437 1.54531,6.78594c0.13438,1.71328 0,3.35938 2.08281,3.29219c1.71328,-0.03359 3.35938,-0.47031 5.03906,-0.67187c2.48594,-0.30234 5.10625,-0.16797 7.59219,-0.23516c1.94844,-0.06719 3.89687,-0.10078 5.84531,0.06719c1.6125,0.13437 3.25859,0.33594 4.87109,0.36953c0.73906,0 2.6875,0.06719 3.02344,-0.30234c0.60469,-0.70547 1.41094,-0.73906 2.04922,-0.43672c1.27656,-0.30234 2.55312,-0.70547 3.72891,-1.24297c0.03359,-3.46016 -0.13438,-6.88672 -0.47031,-10.27969z"
                      fill="#1e4384"
                    ></path>
                    <path
                      d="M152.75078,136.96172c0.26875,-0.5375 0.33594,-1.17578 -0.03359,-1.81406c-0.26875,-0.50391 -0.06719,-1.64609 -0.06719,-2.18359c0,-0.94063 -0.10078,-1.84766 -0.16797,-2.75469c-0.20156,-2.35156 -0.33594,-4.70312 -0.33594,-7.08828c0,-5.24063 -0.16797,-10.48125 -0.23516,-15.72187c-0.10078,-10.78359 -1.17578,-21.53359 -1.81406,-32.28359c-0.60469,-10.68281 -0.30234,-21.29844 -1.81406,-31.91406c-0.36953,-2.55313 -0.87344,-5.03906 -1.27656,-7.59219c-0.36953,-2.41875 -0.40312,-4.90469 -0.70547,-7.35703c-0.30234,-2.48594 -1.075,-4.87109 -1.47813,-7.35703c-0.43672,-2.65391 -0.70547,-5.375 -1.00781,-8.0625c-0.13437,-1.20938 -1.075,-1.71328 -1.94844,-1.64609c-0.36953,-0.33594 -0.87344,-0.5375 -1.37734,-0.50391c-9.54062,0.5375 -19.11484,0.43672 -28.62187,1.34375c-9.675,0.90703 -19.24922,2.62031 -28.99141,2.92266c-9.70859,0.30234 -19.41719,0.10078 -29.09219,0.77266c-2.25078,0.13438 -4.50156,0.30234 -6.68516,0.83984c-0.83984,0.20156 -1.78047,0.50391 -2.65391,0.43672c-0.83984,-0.06719 -1.64609,-0.40312 -2.48594,-0.5375c-1.67969,-0.26875 -2.98984,0.40313 -3.86328,1.84766c-0.87344,1.44453 0.06719,2.95625 -0.06719,4.40078c0,0.06719 0,0.10078 0,0.16797c-2.08281,0.20156 -5.07266,0.36953 -6.51719,1.94844c-0.20156,0.20156 -0.36953,0.43672 -0.47031,0.70547c-0.20156,0.43672 -0.20156,0.83984 -0.13438,1.20937c-0.03359,0.10078 -0.03359,0.16797 -0.03359,0.26875c-0.16797,2.25078 0.20156,4.33359 0.67188,6.51719c0.5375,2.38516 0.77266,4.66953 0.87344,7.08828c0.20156,5.07266 0.26875,10.11172 0.43672,15.18437c0.36953,10.71641 0.36953,21.39922 1.37734,32.04844c0.50391,5.30781 1.20938,10.61563 1.81406,15.92344c0.60469,5.10625 0.57109,10.31328 0.57109,15.45313c-0.03359,10.85078 -0.06719,21.73516 -0.06719,32.58594c0,0.87344 0.47031,1.37734 1.075,1.54531c0.33594,0.47031 0.83984,0.80625 1.57891,0.80625c22.23906,0 44.44453,0.40312 66.68359,0.57109c2.01563,0.03359 4.06484,0.03359 6.08047,0.03359v-0.33594c0.23516,-0.13437 0.47031,-0.36953 0.63828,-0.63828c1.24297,-1.94844 2.6875,-3.7625 4.26641,-5.44219c0.30234,0.23516 0.73906,0.40313 1.24297,0.36953c3.56094,-0.20156 7.02109,-1.14219 10.48125,-1.98203c3.7625,-0.90703 7.62578,-1.14219 11.48906,-1.54531c1.84766,-0.20156 3.69531,-0.43672 5.50938,-0.70547c1.54531,-0.23516 3.225,-0.33594 4.63594,-1.04141c2.48594,-1.24297 2.55312,-3.69531 2.51953,-6.14766c0.03359,-0.06719 0.03359,-0.20156 0,-0.33594zM115.83125,136.96172c-0.33594,-0.36953 -0.80625,-0.60469 -1.41094,-0.60469h-0.10078c-0.03359,0 -0.06719,0 -0.10078,0c-3.56094,0.03359 -6.9875,0.73906 -10.48125,1.20937c-5.30781,0.70547 -10.61562,1.54531 -15.95703,2.04922c-9.84297,0.97422 -20.39141,1.98203 -30.06641,-0.77266c-2.28438,-0.67187 -2.98984,2.98984 -0.70547,3.62812c9.60781,2.75469 19.92109,1.74688 29.76406,0.97422c5.57656,-0.43672 11.08594,-1.34375 16.62891,-2.08281c3.72891,-0.50391 7.39063,-1.27656 11.15313,-1.31016c-0.73906,1.71328 -1.51172,3.42656 -2.41875,5.07266c-1.10859,2.01563 -2.92266,5.44219 -5.61016,5.375c-0.60469,0 -1.04141,0.23516 -1.31016,0.57109c-20.72734,-0.16797 -41.48828,-0.5375 -62.21562,-0.57109c-0.90703,0 -1.78047,0 -2.6875,0c0,-10.31328 0.03359,-20.59297 0.06719,-30.90625c0.03359,-5.10625 0.06719,-10.31328 -0.50391,-15.41953c-0.60469,-5.30781 -1.31016,-10.61563 -1.84766,-15.92344c-1.075,-10.44766 -1.14219,-20.92891 -1.41094,-31.41016c-0.13438,-5.07266 -0.30234,-10.14531 -0.43672,-15.21797c-0.06719,-2.38516 -0.16797,-4.77031 -0.63828,-7.12188c-0.43672,-2.18359 -1.17578,-4.46797 -1.00781,-6.71875c0,-0.16797 0,-0.30234 0,-0.43672c0.36953,-0.13438 0.77266,-0.23516 1.17578,-0.33594c1.34375,-0.26875 2.6875,-0.40312 4.06484,-0.50391c2.6875,-0.23516 5.375,-0.30234 8.0625,-0.50391c4.36719,-0.30234 8.70078,-0.50391 13.06797,-0.60469c5.44219,-0.13438 10.85078,-0.57109 16.29297,-0.94063c10.88438,-0.73906 21.76875,-0.90703 32.68672,-1.27656c8.23047,-0.26875 16.6625,-0.70547 24.82578,-1.94844c0.36953,-0.06719 0.67188,-0.20156 0.94063,-0.40312c0.16797,0.30234 0.30234,0.63828 0.43672,0.94062c0.33594,0.80625 0.5375,1.67969 0.67188,2.55312c0.36953,2.08281 0.40313,4.19922 0.43672,6.28203c0.03359,4.53516 -0.06719,9.07031 0.06719,13.60547c0.30234,10.81719 0.73906,21.66797 1.51172,32.45156c0.77266,10.88437 2.01563,21.76875 2.85547,32.65313c0.16797,2.01563 0.30234,4.06484 0.40313,6.11406c-0.73906,-0.13437 -1.54531,0.10078 -2.01562,0.87344c-0.26875,0.43672 -2.45234,0.50391 -3.02344,0.5375c-1.41094,0.10078 -2.85547,0.03359 -4.26641,-0.10078c-4.63594,-0.43672 -8.66719,-3.25859 -12.73203,-5.30781c-0.03359,0 -0.06719,-0.03359 -0.06719,-0.03359v0.30234c-0.03359,0 -0.03359,-0.03359 -0.06719,-0.03359c-1.14219,-0.67187 -2.92266,-0.03359 -4.16562,0.10078c-2.65391,0.30234 -5.30781,0.97422 -7.96172,1.41094c-6.18125,0.97422 -12.39609,1.47812 -18.61094,1.88125c-12.26172,0.77266 -24.48984,1.00781 -36.75156,1.00781c-2.38516,0 -2.08281,3.69531 0.26875,3.69531c11.825,0 23.65,-0.23516 35.44141,-0.90703c5.84531,-0.33594 11.65703,-0.80625 17.46875,-1.57891c2.82187,-0.36953 5.61016,-0.83984 8.39844,-1.37734c0.94062,-0.16797 1.88125,-0.36953 2.85547,-0.50391c0.33594,-0.06719 0.67188,-0.10078 1.00781,-0.16797c0.03359,0 0.06719,0 0.10078,0c0.36953,1.24297 0.63828,2.55313 0.80625,3.86328c-4.70312,0.5375 -9.37266,1.20938 -14.00859,2.28438c-5.77813,1.34375 -11.42187,3.15781 -17.33438,3.7625c-5.74453,0.57109 -11.62344,0.43672 -17.36797,0.16797c-2.62031,-0.13437 -5.24062,-0.43672 -7.86094,-0.5375c-2.35156,-0.10078 -4.8375,-0.06719 -6.9875,-1.075c-2.15,-1.00781 -3.79609,2.31797 -1.64609,3.32578c2.18359,1.00781 4.50156,1.24297 6.88672,1.37734c2.72109,0.16797 5.40859,0.36953 8.12969,0.5375c5.94609,0.36953 11.92578,0.47031 17.87187,0.03359c6.04688,-0.43672 11.79141,-2.15 17.63672,-3.59453c4.93828,-1.20938 9.91016,-1.94844 14.91562,-2.51953c0,1.10859 -0.06719,2.21719 -0.16797,3.32578c-0.10078,0 -0.20156,0 -0.30234,0c-0.03359,0.16797 -0.03359,0.36953 -0.06719,0.5375c0,0.20156 -0.03359,0.40313 -0.03359,0.63828c-1.57891,-0.06719 -3.19141,0.10078 -4.77031,0.20156c-2.58672,0.16797 -5.17344,0.26875 -7.76016,0.57109c-5.34141,0.67188 -10.58203,1.81406 -15.92344,2.41875c-10.98516,1.27656 -22.17187,2.01563 -33.22422,0.87344c-2.35156,-0.23516 -3.09062,3.39297 -0.70547,3.62812c10.75,1.10859 21.56719,0.50391 32.28359,-0.63828c5.34141,-0.57109 10.61563,-1.54531 15.92344,-2.35156c2.75469,-0.40312 5.50937,-0.70547 8.26406,-0.80625c1.81406,-0.06719 3.69531,-0.40312 5.50937,-0.30234c-0.63828,2.01562 -1.34375,4.09844 -2.15,6.01328zM117.30938,142.94141c0.5375,-1.24297 1.075,-2.51953 1.57891,-3.7625c2.15,-5.13984 3.62813,-11.18672 3.59453,-17.09922c0.06719,-0.03359 0.10078,-0.06719 0.16797,-0.10078c0,-0.87344 -0.06719,-1.74688 -0.20156,-2.62031c-0.03359,-0.20156 0,-0.36953 0.10078,-0.50391c-0.10078,-0.10078 -0.16797,-0.20156 -0.26875,-0.30234c-0.06719,-0.63828 -0.16797,-1.24297 -0.26875,-1.88125c3.42656,1.81406 6.88672,3.42656 10.85078,3.72891c2.25078,0.16797 5.47578,0.43672 7.89453,-0.5375c-0.03359,0.06719 -0.03359,0.13438 -0.06719,0.20156c-2.11641,2.6875 -4.46797,5.10625 -6.92031,7.49141c-2.85547,2.75469 -5.71094,5.57656 -8.63359,8.26406c-2.58672,2.41875 -5.27422,4.70313 -7.82734,7.12187zM149.02188,139.85078c-0.30234,0.83984 -2.35156,0.80625 -3.05703,0.94062c-3.25859,0.5375 -6.51719,0.83984 -9.77578,1.14219c-2.95625,0.26875 -5.84531,0.67188 -8.76797,1.37734c-2.28437,0.5375 -4.50156,1.10859 -6.81953,1.47813c2.55313,-2.35156 5.20703,-4.56875 7.72656,-6.88672c2.78828,-2.58672 5.47578,-5.27422 8.23047,-7.89453c2.92266,-2.78828 5.74453,-5.71094 8.09609,-9.03672c0.47031,-0.63828 0.50391,-1.34375 0.26875,-1.88125h0.94062c-0.47031,-9.91016 -1.47812,-19.82031 -2.38516,-29.69687c-1.00781,-10.85078 -1.54531,-21.70156 -2.04922,-32.58594c-0.26875,-5.40859 -0.50391,-10.81719 -0.63828,-16.22578c-0.10078,-4.26641 0.13437,-8.53281 -0.03359,-12.79922c-0.06719,-2.04922 -0.33594,-4.09844 -0.83984,-6.08047c-0.40312,-1.64609 -1.17578,-3.79609 -2.88906,-4.40078c-0.67187,-0.23516 -1.27656,-0.10078 -1.74687,0.23516c-0.23516,-0.10078 -0.5375,-0.13437 -0.87344,-0.06719c-8.39844,1.27656 -16.99844,1.67969 -25.46406,1.94844c-11.11953,0.36953 -22.23906,0.57109 -33.35859,1.34375c-9.57422,0.67188 -19.11484,0.90703 -28.68906,1.51172c-1.71328,0.10078 -3.42656,0.20156 -5.17344,0.30234c0,-0.33594 -0.03359,-0.67187 -0.06719,-1.00781c-0.06719,-0.33594 -0.26875,-0.97422 -0.23516,-1.37734c0.06719,0 0.16797,0 0.26875,0c0.43672,0.06719 0.83984,0.20156 1.27656,0.30234c0.87344,0.20156 1.67969,0.20156 2.58672,0.13438c2.01563,-0.10078 3.99766,-0.87344 6.01328,-1.04141c2.35156,-0.20156 4.70313,-0.33594 7.05469,-0.43672c9.03672,-0.43672 18.10703,-0.20156 27.17734,-0.60469c9.07031,-0.40313 18.03984,-2.04922 27.07656,-2.88906c8.76797,-0.80625 17.63672,-0.73906 26.43828,-1.17578c0.30234,0.20156 0.63828,0.30234 1.04141,0.20156c0.20156,1.94844 0.43672,3.93047 0.73906,5.87891c0.40312,2.6875 1.17578,5.30781 1.57891,7.96172c0.36953,2.45234 0.36953,4.90469 0.70547,7.35703c0.33594,2.75469 0.97422,5.47578 1.34375,8.23047c1.54531,10.81719 1.14219,21.70156 1.81406,32.58594c0.63828,10.98516 1.71328,21.93672 1.74687,32.95547c0,5.17344 0.13438,10.31328 0.23516,15.48672c0.03359,2.28437 0.20156,4.56875 0.47031,6.81953c0.20156,1.64609 -0.16797,3.15781 0.43672,4.66953c-0.16797,0.26875 -0.26875,0.60469 -0.26875,1.00781c-0.03359,0.70547 0.10078,1.57891 -0.13437,2.21719z"
                      fill="#010101"
                    ></path>
                    <path
                      d="M62.98828,31.88047c-0.26875,-2.35156 -3.96406,-2.08281 -3.69531,0.26875c0.26875,2.25078 -0.43672,4.73672 -0.70547,6.9875c-0.23516,1.74688 -0.26875,3.52734 -0.43672,5.27422c-1.37734,-1.67969 -2.85547,-3.25859 -3.96406,-5.13984c-1.57891,-2.62031 -2.78828,-6.01328 -5.24063,-7.96172c-0.5375,-0.43672 -1.10859,-0.50391 -1.6125,-0.36953c-1.00781,-0.57109 -2.51953,-0.30234 -2.75469,1.17578c-0.5375,3.35938 0.43672,6.88672 0.80625,10.2125c0.33594,3.09062 0.5375,6.24844 0.5375,9.37266c0,2.38516 3.69531,2.08281 3.69531,-0.26875v-0.26875c0,-0.03359 0,-0.06719 0,-0.10078c0,-2.72109 -0.16797,-5.47578 -0.43672,-8.19688c-0.23516,-2.21719 -0.83984,-4.63594 -1.00781,-6.9875c1.10859,1.6125 1.91484,3.59453 2.82188,5.17344c1.81406,3.12422 4.87109,5.375 6.48359,8.63359c0.83984,1.71328 2.95625,1.54531 3.56094,-0.26875c1.075,-3.25859 0.90703,-6.71875 1.34375,-10.07812c0.20156,-2.41875 0.87344,-5.03906 0.60469,-7.45781zM82.94297,45.62031c-4.50156,-0.16797 -8.93594,0.73906 -13.40391,0.87344c0.10078,-1.98203 0.03359,-4.03125 -0.10078,-6.01328c0.16797,0.06719 0.36953,0.10078 0.57109,0.10078c2.18359,0.03359 4.3,0.10078 6.48359,-0.03359c1.54531,-0.10078 3.39297,-0.67187 4.90469,-0.23516c2.28437,0.70547 2.95625,-2.95625 0.70547,-3.62812c-1.57891,-0.47031 -3.49375,-0.06719 -5.10625,0.10078c-2.41875,0.26875 -4.8375,0.13437 -7.25625,0.10078c-0.16797,0 -0.33594,0.03359 -0.47031,0.03359c-0.03359,-1.27656 -0.03359,-3.02344 -0.40313,-4.43438c2.21719,-0.67187 5.03906,-0.20156 7.28984,-0.23516c1.78047,0 4.40078,0.30234 5.94609,-0.77266c1.98203,-1.34375 -0.10078,-4.40078 -2.08281,-3.05703c0.40312,-0.26875 -0.33594,0 -0.47031,0c-0.50391,0.06719 -1.00781,0.06719 -1.51172,0.10078c-1.04141,0.03359 -2.08281,0 -3.12422,0.06719c-2.58672,0.20156 -5.20703,-0.43672 -7.72656,0.50391c-0.43672,0.16797 -0.73906,0.43672 -0.94062,0.77266c-1.41094,0.06719 -1.98203,1.81406 -1.27656,2.92266c0.03359,0.06719 0.03359,0.10078 0.03359,0.10078c0,0 0,0.03359 0.03359,0.13437c0.10078,0.57109 0.16797,1.10859 0.23516,1.67969c0.16797,1.54531 0.26875,3.05703 0.33594,4.60234c0.06719,1.57891 0.13438,3.19141 0.16797,4.77031c0,0.63828 0,1.27656 0,1.91484c0,0.26875 0,0.57109 0,0.83984c0,0.10078 0,0.13438 0,0.20156c0,-0.03359 0,-0.03359 0,0.03359c-0.10078,1.17578 0.73906,1.94844 1.6125,2.11641c0.30234,0.57109 0.87344,0.97422 1.67969,0.97422c4.73672,-0.03359 9.37266,-1.075 14.10938,-0.90703c2.41875,0.16797 2.11641,-3.52734 -0.23516,-3.62812zM106.72734,30.77188c-1.075,1.64609 -0.87344,3.82969 -1.00781,5.71094c-0.13438,1.47812 -0.36953,2.92266 -0.67187,4.40078c-1.44453,-2.92266 -2.6875,-5.97969 -5.27422,-8.19687c-0.70547,-0.60469 -2.01562,-0.63828 -2.62031,0.16797c-1.31016,1.81406 -1.47813,4.03125 -1.78047,6.21484c-0.20156,1.41094 -0.57109,2.78828 -0.94062,4.13203c-0.80625,-1.64609 -1.37734,-3.42656 -1.98203,-5.10625c-1.04141,-3.02344 -3.15781,-6.01328 -3.05703,-9.33906c0.10078,-2.38516 -3.59453,-2.08281 -3.69531,0.26875c-0.13438,3.66172 2.08281,6.92031 3.225,10.27969c1.17578,3.42656 2.45234,6.88672 5.00547,9.57422c1.00781,1.075 2.75469,0.23516 3.02344,-1.04141c0.5375,-2.45234 1.31016,-4.8375 1.88125,-7.28984c0.20156,-0.87344 0.20156,-1.94844 0.33594,-2.98984c2.04922,2.92266 2.98984,6.58438 5.20703,9.40625c0.94062,1.20937 3.09062,1.00781 3.35938,-0.67187c0.43672,-2.72109 1.00781,-5.40859 1.47812,-8.09609c0.30234,-1.74687 -0.16797,-4.23281 0.83984,-5.74453c1.31016,-2.04922 -2.01562,-3.66172 -3.32578,-1.67969zM126.51406,35.77734c-1.10859,-1.64609 -2.65391,-2.55313 -4.56875,-3.02344c-1.54531,-0.36953 -3.32578,0.06719 -4.77031,-0.43672c-0.50391,-0.16797 1.74688,-2.11641 2.01563,-2.31797c1.24297,-0.80625 3.79609,-1.17578 5.13984,-0.60469c2.18359,0.90703 3.82969,-2.38516 1.64609,-3.32578c-3.12422,-1.31016 -7.42422,-0.50391 -10.01094,1.67969c-2.38516,2.01563 -4.16563,6.51719 -0.10078,7.92812c1.6125,0.57109 3.29219,0.13438 4.90469,0.5375c2.01563,0.50391 3.25859,1.67969 3.46016,3.82969c0.40313,3.89688 -5.30781,4.13203 -7.96172,4.13203c-2.38516,0.03359 -2.08281,3.69531 0.26875,3.69531c3.05703,-0.03359 6.71875,-0.43672 9.1375,-2.51953c2.92266,-2.31797 2.85547,-6.61797 0.83984,-9.57422zM89.25859,65.67578c-0.33594,-3.59453 -0.73906,-7.35703 -1.94844,-10.75c-0.67187,-1.84766 -3.12422,-1.34375 -3.56094,0.13437c-5.97969,0.06719 -11.99297,0.43672 -17.93906,1.04141c-3.56094,0.36953 -7.08828,1.14219 -10.64922,1.6125c-2.65391,0.36953 -5.44219,0.33594 -7.82734,1.64609c-0.16797,0.10078 -0.30234,0.20156 -0.40312,0.30234c-1.14219,-0.30234 -2.48594,0.36953 -2.18359,1.81406c0.63828,2.98984 1.31016,6.01328 2.11641,8.93594c0.36953,1.27656 0.77266,2.55312 1.10859,3.82969c0.33594,1.27656 0.23516,2.72109 0.43672,4.03125c0.73906,5.03906 5.44219,4.93828 9.43984,4.23281c2.55313,-0.43672 5.17344,-0.36953 7.79375,-0.43672c2.28437,-0.06719 4.53516,-0.16797 6.81953,0.03359c2.6875,0.23516 7.15547,1.17578 9.77578,-0.43672c0.26875,0.03359 0.5375,0.03359 0.83984,-0.03359c2.11641,-0.50391 4.09844,-1.17578 6.01328,-2.21719c0.60469,-0.33594 0.80625,-1.04141 0.80625,-1.67969c-0.03359,-3.99766 -0.26875,-8.02891 -0.63828,-12.06016zM82.40547,78.07188c-0.63828,-0.30234 -1.44453,-0.23516 -2.04922,0.43672c-0.33594,0.36953 -2.28437,0.30234 -3.02344,0.30234c-1.6125,0 -3.25859,-0.20156 -4.87109,-0.36953c-1.94844,-0.16797 -3.89687,-0.10078 -5.84531,-0.06719c-2.48594,0.06719 -5.10625,-0.10078 -7.59219,0.23516c-1.67969,0.20156 -3.32578,0.63828 -5.03906,0.67188c-2.08281,0.06719 -1.94844,-1.57891 -2.08281,-3.29219c-0.16797,-2.35156 -0.87344,-4.53516 -1.54531,-6.78594c-0.63828,-2.15 -1.14219,-4.36719 -1.6125,-6.55078c0.23516,-0.03359 0.43672,-0.10078 0.67188,-0.23516c0.97422,-0.5375 2.18359,-0.57109 3.25859,-0.67187c1.37734,-0.13437 2.6875,-0.33594 4.06484,-0.5375c3.32578,-0.47031 6.61797,-1.17578 9.94375,-1.51172c5.94609,-0.60469 11.92578,-0.97422 17.90547,-1.00781c0.60469,2.58672 0.80625,5.27422 1.075,7.86094c0.33594,3.39297 0.50391,6.81953 0.5375,10.2125c-1.24297,0.60469 -2.51953,0.97422 -3.79609,1.31016zM125.17031,53.07813c0,-0.06719 -0.03359,-0.10078 -0.03359,-0.16797c-0.20156,-0.83984 -1.10859,-1.20938 -1.88125,-1.24297c-4.87109,-0.16797 -9.64141,0.90703 -14.44531,1.6125c-5.07266,0.77266 -10.2125,1.04141 -15.35234,1.075c-2.38516,0 -2.08281,3.69531 0.26875,3.69531c4.93828,0 9.84297,-0.30234 14.71406,-0.97422c4.53516,-0.60469 8.96953,-1.64609 13.53828,-1.71328c0.70547,0.43672 1.78047,0.50391 2.48594,-0.20156l-0.03359,0.06719c0.77266,-0.5375 0.97422,-1.31016 0.73906,-2.15zM123.92734,57.5125c-4.90469,0.47031 -9.675,1.74687 -14.54609,2.25078c-4.19922,0.43672 -8.29766,0.87344 -12.53047,0.90703c-2.38516,0 -2.08281,3.69531 0.26875,3.69531c4.03125,0 8.0625,-0.23516 12.02656,-0.80625c4.56875,-0.67187 9.10391,-1.6125 13.67266,-2.15c0.20156,0.06719 0.43672,0.10078 0.70547,0.06719c0.60469,-0.06719 1.04141,-0.23516 1.57891,-0.5375c1.6125,-1.00781 0.60469,-3.59453 -1.17578,-3.42656zM125.50625,64.66797c-5.00547,-0.16797 -9.84297,1.075 -14.78125,1.57891c-4.70312,0.47031 -9.33906,1.94844 -14.10937,1.78047c-2.38516,-0.06719 -2.08281,3.59453 0.26875,3.69531c4.77031,0.16797 9.40625,-1.31016 14.10938,-1.78047c4.43438,-0.47031 8.80156,-1.47813 13.23594,-1.57891c0.47031,0.23516 1.04141,0.26875 1.6125,0c2.35156,-0.26875 1.94844,-3.62812 -0.33594,-3.69531zM128.4625,71.65547c-1.78047,-0.26875 -3.62813,0.23516 -5.40859,0.40313c-2.95625,0.26875 -5.87891,0.60469 -8.80156,1.04141c-6.41641,0.97422 -12.69844,2.08281 -19.21563,2.11641c-2.38516,0 -2.08281,3.69531 0.26875,3.69531c6.04688,-0.03359 11.99297,-0.87344 17.93906,-1.91484c2.88906,-0.50391 5.81172,-0.90703 8.76797,-1.17578c1.00781,-0.10078 2.01563,-0.13438 3.02344,-0.26875c0.83984,-0.10078 1.98203,-0.36953 2.72109,-0.26875c2.35156,0.36953 3.05703,-3.25859 0.70547,-3.62812zM125.50625,79.68438h-1.10859c-0.57109,0 -0.97422,0.20156 -1.24297,0.5375c-1.81406,0.23516 -3.66172,0.10078 -5.47578,0.36953c-3.05703,0.47031 -6.11406,0.77266 -9.17109,1.20937c-6.45,0.97422 -12.93359,1.57891 -19.41719,2.18359c-12.63125,1.17578 -25.2625,2.85547 -37.96094,2.88906c-2.38516,0 -2.08281,3.69531 0.26875,3.69531c12.9,-0.03359 25.76641,-1.71328 38.59922,-2.92266c6.48359,-0.60469 12.96719,-1.24297 19.41719,-2.21719c2.98984,-0.43672 6.01328,-0.73906 9.00312,-1.20937c2.62031,-0.40313 5.24063,-0.03359 7.79375,-0.90703c2.08281,-0.77266 1.31016,-3.62812 -0.70547,-3.62812zM128.86563,85.49609h-0.43672c-0.06719,0 -0.13438,0 -0.23516,0c-6.04687,0.10078 -12.06016,1.14219 -18.07344,1.84766c-6.28203,0.77266 -12.56406,1.78047 -18.8125,2.82187c-6.21484,1.00781 -12.42969,2.04922 -18.71172,2.62031c-6.45,0.57109 -12.96719,0.73906 -19.45078,0.77266c-2.38516,0 -2.08281,3.69531 0.26875,3.69531c6.28203,0 12.53047,-0.20156 18.77891,-0.70547c6.28203,-0.50391 12.49688,-1.54531 18.71172,-2.58672c6.24844,-1.04141 12.49687,-2.04922 18.77891,-2.82188c6.41641,-0.80625 12.9,-1.91484 19.41719,-1.94844c2.41875,-0.03359 2.11641,-3.69531 -0.23516,-3.69531zM124.80078,94.66719h-0.40313c-0.10078,0 -0.20156,0 -0.26875,0.03359c-2.38516,0.13437 -4.53516,0.83984 -6.88672,1.31016c-3.05703,0.60469 -6.21484,0.73906 -9.33906,1.14219c-6.48359,0.80625 -13.00078,1.44453 -19.48437,2.08281c-6.11406,0.60469 -12.26172,1.44453 -18.40938,1.78047c-6.14766,0.33594 -12.26172,-0.36953 -18.37578,-0.06719c-2.38516,0.13437 -2.08281,3.79609 0.26875,3.69531c5.9125,-0.30234 11.825,0.33594 17.77109,0.10078c6.34922,-0.26875 12.69844,-1.17578 19.04766,-1.81406c6.28203,-0.60469 12.56406,-1.24297 18.84609,-1.98203c3.12422,-0.36953 6.24844,-0.60469 9.37266,-1.10859c2.78828,-0.43672 5.34141,-1.44453 8.19687,-1.44453c2.31797,-0.03359 2.01563,-3.72891 -0.33594,-3.72891zM128.96641,101.5875c0.60469,-0.60469 0.67188,-0.36953 0,-0.30234c-0.47031,0.06719 -0.97422,0.10078 -1.44453,0.13437c-0.90703,0.06719 -1.81406,0.10078 -2.6875,0.30234c-3.225,0.73906 -6.48359,1.44453 -9.77578,1.84766c-3.39297,0.43672 -6.85312,0.50391 -10.24609,0.73906c-3.62813,0.23516 -7.22266,0.73906 -10.78359,1.20938c-6.92031,0.94062 -13.77344,2.21719 -20.76094,2.48594c-3.35937,0.13437 -6.71875,0.06719 -10.07812,0.06719c-3.12422,0 -6.65156,0.47031 -9.70859,-0.20156c-2.31797,-0.50391 -3.02344,3.12422 -0.70547,3.62813c3.05703,0.63828 6.34922,0.26875 9.43984,0.26875c3.56094,0 7.12187,0.03359 10.71641,-0.06719c7.39063,-0.20156 14.68047,-1.6125 22.0375,-2.58672c3.59453,-0.47031 7.18906,-0.94062 10.78359,-1.17578c3.62813,-0.23516 7.28984,-0.36953 10.91797,-0.87344c3.19141,-0.43672 6.28203,-1.47812 9.43984,-1.84766c1.78047,-0.23516 4.33359,0.16797 5.67734,-1.20938c1.6125,-1.67969 -1.17578,-4.13203 -2.82187,-2.41875z"
                      fill="#010101"
                    ></path>
                  </g>
                </g>
              </svg>